<mxfile host="app.diagrams.net" agent="Mozilla/5.0 (Windows NT 10.0; Win64; x64) AppleWebKit/537.36 (KHTML, like Gecko) Chrome/126.0.0.0 YaBrowser/24.7.0.0 Safari/537.36" version="24.7.13">
  <diagram name="Перерисовки" id="aHLp7eU2ZAAW9AkC9iS3">
    <mxGraphModel dx="667" dy="368" grid="1" gridSize="10" guides="1" tooltips="1" connect="1" arrows="1" fold="1" page="1" pageScale="1" pageWidth="827" pageHeight="1169" math="0" shadow="0">
      <root>
        <mxCell id="0" />
        <mxCell id="1" parent="0" />
        <mxCell id="n97WEuA_4rRA8sXiVIRi-5" style="edgeStyle=orthogonalEdgeStyle;rounded=0;orthogonalLoop=1;jettySize=auto;html=1;entryX=0;entryY=0.5;entryDx=0;entryDy=0;" edge="1" parent="1" source="n97WEuA_4rRA8sXiVIRi-1" target="n97WEuA_4rRA8sXiVIRi-4">
          <mxGeometry relative="1" as="geometry" />
        </mxCell>
        <mxCell id="n97WEuA_4rRA8sXiVIRi-1" value="Лагает страница.&lt;br&gt;В чём причина?" style="rounded=1;whiteSpace=wrap;html=1;fillColor=#fff2cc;strokeColor=#d6b656;fontStyle=1" vertex="1" parent="1">
          <mxGeometry x="470" y="380" width="150" height="40" as="geometry" />
        </mxCell>
        <mxCell id="n97WEuA_4rRA8sXiVIRi-2" value="Пример с таблицой" style="rounded=1;whiteSpace=wrap;html=1;fillColor=#d5e8d4;strokeColor=#82b366;fontStyle=1" vertex="1" parent="1">
          <mxGeometry x="470" y="430" width="150" height="30" as="geometry" />
        </mxCell>
        <mxCell id="n97WEuA_4rRA8sXiVIRi-7" style="edgeStyle=orthogonalEdgeStyle;rounded=0;orthogonalLoop=1;jettySize=auto;html=1;entryX=0;entryY=0.5;entryDx=0;entryDy=0;exitX=0.5;exitY=0;exitDx=0;exitDy=0;strokeColor=default;align=center;verticalAlign=middle;fontFamily=Helvetica;fontSize=11;fontColor=default;labelBackgroundColor=default;endArrow=classic;curved=1;" edge="1" parent="1" source="n97WEuA_4rRA8sXiVIRi-4" target="n97WEuA_4rRA8sXiVIRi-6">
          <mxGeometry relative="1" as="geometry" />
        </mxCell>
        <mxCell id="n97WEuA_4rRA8sXiVIRi-8" value="НЕТ" style="edgeLabel;html=1;align=center;verticalAlign=middle;resizable=0;points=[];rounded=0;strokeColor=default;fontFamily=Helvetica;fontSize=11;fontColor=default;labelBackgroundColor=default;" vertex="1" connectable="0" parent="n97WEuA_4rRA8sXiVIRi-7">
          <mxGeometry x="-0.7269" y="1" relative="1" as="geometry">
            <mxPoint as="offset" />
          </mxGeometry>
        </mxCell>
        <mxCell id="n97WEuA_4rRA8sXiVIRi-14" style="edgeStyle=orthogonalEdgeStyle;shape=connector;curved=1;rounded=0;orthogonalLoop=1;jettySize=auto;html=1;entryX=0;entryY=0.5;entryDx=0;entryDy=0;strokeColor=default;align=center;verticalAlign=middle;fontFamily=Helvetica;fontSize=11;fontColor=default;labelBackgroundColor=default;endArrow=classic;exitX=0.5;exitY=1;exitDx=0;exitDy=0;" edge="1" parent="1" source="n97WEuA_4rRA8sXiVIRi-4" target="n97WEuA_4rRA8sXiVIRi-13">
          <mxGeometry relative="1" as="geometry" />
        </mxCell>
        <mxCell id="n97WEuA_4rRA8sXiVIRi-17" value="ДА" style="edgeLabel;html=1;align=center;verticalAlign=middle;resizable=0;points=[];fontFamily=Helvetica;fontSize=11;fontColor=default;labelBackgroundColor=default;" vertex="1" connectable="0" parent="n97WEuA_4rRA8sXiVIRi-14">
          <mxGeometry x="-0.7059" y="9" relative="1" as="geometry">
            <mxPoint x="-9" y="-3" as="offset" />
          </mxGeometry>
        </mxCell>
        <mxCell id="n97WEuA_4rRA8sXiVIRi-4" value="Есть доступ&lt;br&gt;к коду?" style="rhombus;whiteSpace=wrap;html=1;fillColor=#dae8fc;strokeColor=#6c8ebf;" vertex="1" parent="1">
          <mxGeometry x="650" y="364" width="130" height="72" as="geometry" />
        </mxCell>
        <mxCell id="n97WEuA_4rRA8sXiVIRi-11" style="edgeStyle=orthogonalEdgeStyle;rounded=0;orthogonalLoop=1;jettySize=auto;html=1;entryX=0;entryY=0.5;entryDx=0;entryDy=0;curved=1;" edge="1" parent="1" source="n97WEuA_4rRA8sXiVIRi-6" target="n97WEuA_4rRA8sXiVIRi-9">
          <mxGeometry relative="1" as="geometry" />
        </mxCell>
        <mxCell id="n97WEuA_4rRA8sXiVIRi-12" style="edgeStyle=orthogonalEdgeStyle;shape=connector;curved=1;rounded=0;orthogonalLoop=1;jettySize=auto;html=1;entryX=0;entryY=0.5;entryDx=0;entryDy=0;strokeColor=default;align=center;verticalAlign=middle;fontFamily=Helvetica;fontSize=11;fontColor=default;labelBackgroundColor=default;endArrow=classic;" edge="1" parent="1" source="n97WEuA_4rRA8sXiVIRi-6" target="n97WEuA_4rRA8sXiVIRi-10">
          <mxGeometry relative="1" as="geometry" />
        </mxCell>
        <mxCell id="n97WEuA_4rRA8sXiVIRi-42" style="edgeStyle=orthogonalEdgeStyle;shape=connector;curved=1;rounded=0;orthogonalLoop=1;jettySize=auto;html=1;entryX=0;entryY=0.5;entryDx=0;entryDy=0;strokeColor=default;align=center;verticalAlign=middle;fontFamily=Helvetica;fontSize=11;fontColor=default;labelBackgroundColor=default;endArrow=classic;" edge="1" parent="1" source="n97WEuA_4rRA8sXiVIRi-6" target="n97WEuA_4rRA8sXiVIRi-41">
          <mxGeometry relative="1" as="geometry" />
        </mxCell>
        <mxCell id="n97WEuA_4rRA8sXiVIRi-6" value="Средства разработчика" style="rounded=1;whiteSpace=wrap;html=1;fillColor=#fff2cc;strokeColor=#d6b656;fontStyle=1" vertex="1" parent="1">
          <mxGeometry x="800" y="290" width="150" height="40" as="geometry" />
        </mxCell>
        <mxCell id="n97WEuA_4rRA8sXiVIRi-9" value="Вкладка&lt;span style=&quot;color: rgba(0, 0, 0, 0); font-family: monospace; font-size: 0px; font-weight: 400; text-align: start; text-wrap: nowrap;&quot;&gt;%3CmxGraphModel%3E%3Croot%3E%3CmxCell%20id%3D%220%22%2F%3E%3CmxCell%20id%3D%221%22%20parent%3D%220%22%2F%3E%3CmxCell%20id%3D%222%22%20value%3D%22%D0%A1%D1%80%D0%B5%D0%B4%D1%81%D1%82%D0%B2%D0%B0%20%D1%80%D0%B0%D0%B7%D1%80%D0%B0%D0%B1%D0%BE%D1%82%D1%87%D0%B8%D0%BA%D0%B0%22%20style%3D%22rounded%3D1%3BwhiteSpace%3Dwrap%3Bhtml%3D1%3BfillColor%3D%23fff2cc%3BstrokeColor%3D%23d6b656%3BfontStyle%3D1%22%20vertex%3D%221%22%20parent%3D%221%22%3E%3CmxGeometry%20x%3D%22800%22%20y%3D%22300%22%20width%3D%22150%22%20height%3D%2240%22%20as%3D%22geometry%22%2F%3E%3C%2FmxCell%3E%3C%2Froot%3E%3C%2FmxGraphModel%3E&lt;/span&gt;&amp;nbsp;Performance" style="rounded=1;whiteSpace=wrap;html=1;fillColor=#dae8fc;strokeColor=#6c8ebf;fontStyle=1" vertex="1" parent="1">
          <mxGeometry x="990" y="240" width="150" height="40" as="geometry" />
        </mxCell>
        <mxCell id="n97WEuA_4rRA8sXiVIRi-10" value="Вкладка&lt;span style=&quot;color: rgba(0, 0, 0, 0); font-family: monospace; font-size: 0px; font-weight: 400; text-align: start; text-wrap: nowrap;&quot;&gt;%3CmxGraphModel%3E%3Croot%3E%3CmxCell%20id%3D%220%22%2F%3E%3CmxCell%20id%3D%221%22%20parent%3D%220%22%2F%3E%3CmxCell%20id%3D%222%22%20value%3D%22%D0%A1%D1%80%D0%B5%D0%B4%D1%81%D1%82%D0%B2%D0%B0%20%D1%80%D0%B0%D0%B7%D1%80%D0%B0%D0%B1%D0%BE%D1%82%D1%87%D0%B8%D0%BA%D0%B0%22%20style%3D%22rounded%3D1%3BwhiteSpace%3Dwrap%3Bhtml%3D1%3BfillColor%3D%23fff2cc%3BstrokeColor%3D%23d6b656%3BfontStyle%3D1%22%20vertex%3D%221%22%20parent%3D%221%22%3E%3CmxGeometry%20x%3D%22800%22%20y%3D%22300%22%20width%3D%22150%22%20height%3D%2240%22%20as%3D%22geometry%22%2F%3E%3C%2FmxCell%3E%3C%2Froot%3E%3C%2FmxGraphModel%3E&lt;/span&gt;&amp;nbsp;Lighthouse" style="rounded=1;whiteSpace=wrap;html=1;fillColor=#dae8fc;strokeColor=#6c8ebf;fontStyle=1" vertex="1" parent="1">
          <mxGeometry x="990" y="290" width="150" height="40" as="geometry" />
        </mxCell>
        <mxCell id="n97WEuA_4rRA8sXiVIRi-21" style="edgeStyle=orthogonalEdgeStyle;shape=connector;curved=1;rounded=0;orthogonalLoop=1;jettySize=auto;html=1;entryX=0;entryY=0.5;entryDx=0;entryDy=0;strokeColor=default;align=center;verticalAlign=middle;fontFamily=Helvetica;fontSize=11;fontColor=default;labelBackgroundColor=default;endArrow=classic;" edge="1" parent="1" source="n97WEuA_4rRA8sXiVIRi-13" target="n97WEuA_4rRA8sXiVIRi-18">
          <mxGeometry relative="1" as="geometry" />
        </mxCell>
        <mxCell id="n97WEuA_4rRA8sXiVIRi-22" style="edgeStyle=orthogonalEdgeStyle;shape=connector;curved=1;rounded=0;orthogonalLoop=1;jettySize=auto;html=1;strokeColor=default;align=center;verticalAlign=middle;fontFamily=Helvetica;fontSize=11;fontColor=default;labelBackgroundColor=default;endArrow=classic;" edge="1" parent="1" source="n97WEuA_4rRA8sXiVIRi-13" target="n97WEuA_4rRA8sXiVIRi-19">
          <mxGeometry relative="1" as="geometry" />
        </mxCell>
        <mxCell id="n97WEuA_4rRA8sXiVIRi-23" style="edgeStyle=orthogonalEdgeStyle;shape=connector;curved=1;rounded=0;orthogonalLoop=1;jettySize=auto;html=1;entryX=0;entryY=0.5;entryDx=0;entryDy=0;strokeColor=default;align=center;verticalAlign=middle;fontFamily=Helvetica;fontSize=11;fontColor=default;labelBackgroundColor=default;endArrow=classic;" edge="1" parent="1" source="n97WEuA_4rRA8sXiVIRi-13" target="n97WEuA_4rRA8sXiVIRi-20">
          <mxGeometry relative="1" as="geometry" />
        </mxCell>
        <mxCell id="n97WEuA_4rRA8sXiVIRi-13" value="Куда смотреть?" style="rounded=1;whiteSpace=wrap;html=1;fillColor=#fff2cc;strokeColor=#d6b656;fontStyle=1" vertex="1" parent="1">
          <mxGeometry x="800" y="470" width="150" height="40" as="geometry" />
        </mxCell>
        <mxCell id="n97WEuA_4rRA8sXiVIRi-25" style="edgeStyle=orthogonalEdgeStyle;shape=connector;curved=1;rounded=0;orthogonalLoop=1;jettySize=auto;html=1;entryX=0;entryY=0.5;entryDx=0;entryDy=0;strokeColor=default;align=center;verticalAlign=middle;fontFamily=Helvetica;fontSize=11;fontColor=default;labelBackgroundColor=default;endArrow=classic;" edge="1" parent="1" source="n97WEuA_4rRA8sXiVIRi-18" target="n97WEuA_4rRA8sXiVIRi-24">
          <mxGeometry relative="1" as="geometry" />
        </mxCell>
        <mxCell id="n97WEuA_4rRA8sXiVIRi-18" value="Стили" style="rounded=1;whiteSpace=wrap;html=1;fillColor=#dae8fc;strokeColor=#6c8ebf;fontStyle=1" vertex="1" parent="1">
          <mxGeometry x="990" y="420" width="150" height="40" as="geometry" />
        </mxCell>
        <mxCell id="n97WEuA_4rRA8sXiVIRi-26" style="edgeStyle=orthogonalEdgeStyle;shape=connector;curved=1;rounded=0;orthogonalLoop=1;jettySize=auto;html=1;strokeColor=default;align=center;verticalAlign=middle;fontFamily=Helvetica;fontSize=11;fontColor=default;labelBackgroundColor=default;endArrow=classic;" edge="1" parent="1" source="n97WEuA_4rRA8sXiVIRi-19" target="n97WEuA_4rRA8sXiVIRi-24">
          <mxGeometry relative="1" as="geometry" />
        </mxCell>
        <mxCell id="n97WEuA_4rRA8sXiVIRi-19" value="Операции | Расчёты" style="rounded=1;whiteSpace=wrap;html=1;fillColor=#dae8fc;strokeColor=#6c8ebf;fontStyle=1" vertex="1" parent="1">
          <mxGeometry x="990" y="470" width="150" height="40" as="geometry" />
        </mxCell>
        <mxCell id="n97WEuA_4rRA8sXiVIRi-27" style="edgeStyle=orthogonalEdgeStyle;shape=connector;curved=1;rounded=0;orthogonalLoop=1;jettySize=auto;html=1;entryX=0;entryY=0.5;entryDx=0;entryDy=0;strokeColor=default;align=center;verticalAlign=middle;fontFamily=Helvetica;fontSize=11;fontColor=default;labelBackgroundColor=default;endArrow=classic;" edge="1" parent="1" source="n97WEuA_4rRA8sXiVIRi-20" target="n97WEuA_4rRA8sXiVIRi-24">
          <mxGeometry relative="1" as="geometry" />
        </mxCell>
        <mxCell id="n97WEuA_4rRA8sXiVIRi-20" value="Работа с сервером" style="rounded=1;whiteSpace=wrap;html=1;fillColor=#dae8fc;strokeColor=#6c8ebf;fontStyle=1" vertex="1" parent="1">
          <mxGeometry x="990" y="520" width="150" height="40" as="geometry" />
        </mxCell>
        <mxCell id="n97WEuA_4rRA8sXiVIRi-29" style="edgeStyle=orthogonalEdgeStyle;shape=connector;curved=1;rounded=0;orthogonalLoop=1;jettySize=auto;html=1;entryX=0;entryY=0.5;entryDx=0;entryDy=0;strokeColor=default;align=center;verticalAlign=middle;fontFamily=Helvetica;fontSize=11;fontColor=default;labelBackgroundColor=default;endArrow=classic;" edge="1" parent="1" source="n97WEuA_4rRA8sXiVIRi-24" target="n97WEuA_4rRA8sXiVIRi-28">
          <mxGeometry relative="1" as="geometry" />
        </mxCell>
        <mxCell id="n97WEuA_4rRA8sXiVIRi-24" value="Как это влияет на перерисовки?" style="rounded=1;whiteSpace=wrap;html=1;fillColor=#fff2cc;strokeColor=#d6b656;fontStyle=1" vertex="1" parent="1">
          <mxGeometry x="1200" y="470" width="150" height="40" as="geometry" />
        </mxCell>
        <mxCell id="n97WEuA_4rRA8sXiVIRi-32" style="edgeStyle=orthogonalEdgeStyle;shape=connector;curved=1;rounded=0;orthogonalLoop=1;jettySize=auto;html=1;entryX=0;entryY=0.5;entryDx=0;entryDy=0;strokeColor=default;align=center;verticalAlign=middle;fontFamily=Helvetica;fontSize=11;fontColor=default;labelBackgroundColor=default;endArrow=classic;" edge="1" parent="1" source="n97WEuA_4rRA8sXiVIRi-28" target="n97WEuA_4rRA8sXiVIRi-31">
          <mxGeometry relative="1" as="geometry" />
        </mxCell>
        <mxCell id="n97WEuA_4rRA8sXiVIRi-28" value="ТЕОРИЯ | Рендеринг и перерисовки в браузере" style="rounded=1;whiteSpace=wrap;html=1;fillColor=#dae8fc;strokeColor=#6c8ebf;fontStyle=1" vertex="1" parent="1">
          <mxGeometry x="1390" y="470" width="160" height="40" as="geometry" />
        </mxCell>
        <mxCell id="n97WEuA_4rRA8sXiVIRi-36" style="edgeStyle=orthogonalEdgeStyle;shape=connector;curved=1;rounded=0;orthogonalLoop=1;jettySize=auto;html=1;strokeColor=default;align=center;verticalAlign=middle;fontFamily=Helvetica;fontSize=11;fontColor=default;labelBackgroundColor=default;endArrow=classic;" edge="1" parent="1" source="n97WEuA_4rRA8sXiVIRi-30">
          <mxGeometry relative="1" as="geometry">
            <mxPoint x="2010" y="490" as="targetPoint" />
          </mxGeometry>
        </mxCell>
        <mxCell id="n97WEuA_4rRA8sXiVIRi-30" value="Жизненный цикл компонента" style="rounded=1;whiteSpace=wrap;html=1;fillColor=#dae8fc;strokeColor=#6c8ebf;fontStyle=1" vertex="1" parent="1">
          <mxGeometry x="1780" y="470" width="160" height="40" as="geometry" />
        </mxCell>
        <mxCell id="n97WEuA_4rRA8sXiVIRi-33" style="edgeStyle=orthogonalEdgeStyle;shape=connector;curved=1;rounded=0;orthogonalLoop=1;jettySize=auto;html=1;entryX=0;entryY=0.5;entryDx=0;entryDy=0;strokeColor=default;align=center;verticalAlign=middle;fontFamily=Helvetica;fontSize=11;fontColor=default;labelBackgroundColor=default;endArrow=classic;" edge="1" parent="1" target="n97WEuA_4rRA8sXiVIRi-30">
          <mxGeometry relative="1" as="geometry">
            <mxPoint x="1720" y="490" as="sourcePoint" />
          </mxGeometry>
        </mxCell>
        <mxCell id="n97WEuA_4rRA8sXiVIRi-31" value="Как мне это использовать в React?" style="rounded=1;whiteSpace=wrap;html=1;fillColor=#fff2cc;strokeColor=#d6b656;fontStyle=1" vertex="1" parent="1">
          <mxGeometry x="1590" y="470" width="150" height="40" as="geometry" />
        </mxCell>
        <mxCell id="n97WEuA_4rRA8sXiVIRi-34" value="Пример с логами на разных этапах отрисовки компонента" style="rounded=1;whiteSpace=wrap;html=1;fillColor=#d5e8d4;strokeColor=#82b366;fontStyle=1" vertex="1" parent="1">
          <mxGeometry x="1765" y="520" width="195" height="30" as="geometry" />
        </mxCell>
        <mxCell id="n97WEuA_4rRA8sXiVIRi-38" style="edgeStyle=orthogonalEdgeStyle;shape=connector;curved=1;rounded=0;orthogonalLoop=1;jettySize=auto;html=1;entryX=0;entryY=0.5;entryDx=0;entryDy=0;strokeColor=default;align=center;verticalAlign=middle;fontFamily=Helvetica;fontSize=11;fontColor=default;labelBackgroundColor=default;endArrow=classic;" edge="1" parent="1" target="n97WEuA_4rRA8sXiVIRi-51">
          <mxGeometry relative="1" as="geometry">
            <mxPoint x="2170" y="490" as="sourcePoint" />
            <mxPoint x="2240" y="423" as="targetPoint" />
          </mxGeometry>
        </mxCell>
        <mxCell id="n97WEuA_4rRA8sXiVIRi-46" style="edgeStyle=orthogonalEdgeStyle;shape=connector;curved=1;rounded=0;orthogonalLoop=1;jettySize=auto;html=1;entryX=0;entryY=0.5;entryDx=0;entryDy=0;strokeColor=default;align=center;verticalAlign=middle;fontFamily=Helvetica;fontSize=11;fontColor=default;labelBackgroundColor=default;endArrow=classic;" edge="1" parent="1" source="n97WEuA_4rRA8sXiVIRi-35" target="n97WEuA_4rRA8sXiVIRi-40">
          <mxGeometry relative="1" as="geometry" />
        </mxCell>
        <mxCell id="n97WEuA_4rRA8sXiVIRi-47" style="edgeStyle=orthogonalEdgeStyle;shape=connector;curved=1;rounded=0;orthogonalLoop=1;jettySize=auto;html=1;entryX=0;entryY=0.5;entryDx=0;entryDy=0;strokeColor=default;align=center;verticalAlign=middle;fontFamily=Helvetica;fontSize=11;fontColor=default;labelBackgroundColor=default;endArrow=classic;" edge="1" parent="1" source="n97WEuA_4rRA8sXiVIRi-35" target="n97WEuA_4rRA8sXiVIRi-43">
          <mxGeometry relative="1" as="geometry" />
        </mxCell>
        <mxCell id="n97WEuA_4rRA8sXiVIRi-48" style="edgeStyle=orthogonalEdgeStyle;shape=connector;curved=1;rounded=0;orthogonalLoop=1;jettySize=auto;html=1;entryX=0;entryY=0.5;entryDx=0;entryDy=0;strokeColor=default;align=center;verticalAlign=middle;fontFamily=Helvetica;fontSize=11;fontColor=default;labelBackgroundColor=default;endArrow=classic;" edge="1" parent="1" source="n97WEuA_4rRA8sXiVIRi-35" target="n97WEuA_4rRA8sXiVIRi-44">
          <mxGeometry relative="1" as="geometry" />
        </mxCell>
        <mxCell id="n97WEuA_4rRA8sXiVIRi-49" style="edgeStyle=orthogonalEdgeStyle;shape=connector;curved=1;rounded=0;orthogonalLoop=1;jettySize=auto;html=1;entryX=0;entryY=0.5;entryDx=0;entryDy=0;strokeColor=default;align=center;verticalAlign=middle;fontFamily=Helvetica;fontSize=11;fontColor=default;labelBackgroundColor=default;endArrow=classic;" edge="1" parent="1" source="n97WEuA_4rRA8sXiVIRi-35" target="n97WEuA_4rRA8sXiVIRi-45">
          <mxGeometry relative="1" as="geometry" />
        </mxCell>
        <mxCell id="n97WEuA_4rRA8sXiVIRi-35" value="Как управлять перерисовками в React?" style="rounded=1;whiteSpace=wrap;html=1;fillColor=#fff2cc;strokeColor=#d6b656;fontStyle=1" vertex="1" parent="1">
          <mxGeometry x="2010" y="470" width="160" height="40" as="geometry" />
        </mxCell>
        <mxCell id="n97WEuA_4rRA8sXiVIRi-39" value="Пример с кликером" style="rounded=1;whiteSpace=wrap;html=1;fillColor=#d5e8d4;strokeColor=#82b366;fontStyle=1" vertex="1" parent="1">
          <mxGeometry x="2430" y="394" width="160" height="30" as="geometry" />
        </mxCell>
        <mxCell id="n97WEuA_4rRA8sXiVIRi-40" value="Изменять стейт компонента" style="rounded=1;whiteSpace=wrap;html=1;fillColor=#dae8fc;strokeColor=#6c8ebf;fontStyle=1" vertex="1" parent="1">
          <mxGeometry x="2240" y="434" width="180" height="30" as="geometry" />
        </mxCell>
        <mxCell id="n97WEuA_4rRA8sXiVIRi-41" value="Вкладка&lt;span style=&quot;color: rgba(0, 0, 0, 0); font-family: monospace; font-size: 0px; font-weight: 400; text-align: start; text-wrap: nowrap;&quot;&gt;%3CmxGraphModel%3E%3Croot%3E%3CmxCell%20id%3D%220%22%2F%3E%3CmxCell%20id%3D%221%22%20parent%3D%220%22%2F%3E%3CmxCell%20id%3D%222%22%20value%3D%22%D0%A1%D1%80%D0%B5%D0%B4%D1%81%D1%82%D0%B2%D0%B0%20%D1%80%D0%B0%D0%B7%D1%80%D0%B0%D0%B1%D0%BE%D1%82%D1%87%D0%B8%D0%BA%D0%B0%22%20style%3D%22rounded%3D1%3BwhiteSpace%3Dwrap%3Bhtml%3D1%3BfillColor%3D%23fff2cc%3BstrokeColor%3D%23d6b656%3BfontStyle%3D1%22%20vertex%3D%221%22%20parent%3D%221%22%3E%3CmxGeometry%20x%3D%22800%22%20y%3D%22300%22%20width%3D%22150%22%20height%3D%2240%22%20as%3D%22geometry%22%2F%3E%3C%2FmxCell%3E%3C%2Froot%3E%3C%2FmxGraphModel%3E&lt;/span&gt;&amp;nbsp;Profiler" style="rounded=1;whiteSpace=wrap;html=1;fillColor=#dae8fc;strokeColor=#6c8ebf;fontStyle=1" vertex="1" parent="1">
          <mxGeometry x="990" y="340" width="150" height="40" as="geometry" />
        </mxCell>
        <mxCell id="n97WEuA_4rRA8sXiVIRi-43" value="Изменять пропс компонента" style="rounded=1;whiteSpace=wrap;html=1;fillColor=#dae8fc;strokeColor=#6c8ebf;fontStyle=1" vertex="1" parent="1">
          <mxGeometry x="2240" y="474" width="180" height="30" as="geometry" />
        </mxCell>
        <mxCell id="n97WEuA_4rRA8sXiVIRi-44" value="Перерисовка родителя" style="rounded=1;whiteSpace=wrap;html=1;fillColor=#dae8fc;strokeColor=#6c8ebf;fontStyle=1" vertex="1" parent="1">
          <mxGeometry x="2240" y="514" width="180" height="30" as="geometry" />
        </mxCell>
        <mxCell id="n97WEuA_4rRA8sXiVIRi-45" value="Изменять key" style="rounded=1;whiteSpace=wrap;html=1;fillColor=#dae8fc;strokeColor=#6c8ebf;fontStyle=1" vertex="1" parent="1">
          <mxGeometry x="2240" y="554" width="180" height="30" as="geometry" />
        </mxCell>
        <mxCell id="n97WEuA_4rRA8sXiVIRi-51" value="useEffect" style="rounded=1;whiteSpace=wrap;html=1;fillColor=#dae8fc;strokeColor=#6c8ebf;fontStyle=1" vertex="1" parent="1">
          <mxGeometry x="2240" y="394" width="180" height="30" as="geometry" />
        </mxCell>
        <mxCell id="n97WEuA_4rRA8sXiVIRi-52" value="Пример со сбросом фокуса в поле ввода" style="rounded=1;whiteSpace=wrap;html=1;fillColor=#d5e8d4;strokeColor=#82b366;fontStyle=1" vertex="1" parent="1">
          <mxGeometry x="2430" y="550" width="260" height="30" as="geometry" />
        </mxCell>
      </root>
    </mxGraphModel>
  </diagram>
</mxfile>
